<?xml version="1.0" encoding="UTF-8"?>
<!DOCTYPE svg PUBLIC "-//W3C//DTD SVG 1.1//EN" "http://www.w3.org/Graphics/SVG/1.1/DTD/svg11.dtd">
<!-- Creator: CorelDRAW SE -->
<?xml-stylesheet href="Basket-01.css" type="text/css"?>
<svg xmlns="http://www.w3.org/2000/svg" xml:space="preserve" width="161px" height="100px" version="1.1" style="shape-rendering:geometricPrecision; text-rendering:geometricPrecision; image-rendering:optimizeQuality; fill-rule:evenodd; clip-rule:evenodd"
viewBox="0 0 161 100"
 xmlns:xlink="http://www.w3.org/1999/xlink">
 <g id="Warstwa_x0020_1">
  <metadata id="CorelCorpID_0Corel-Layer"/>
  <g id="_513254664">
   <path class="fil0" d="M11 43l140 0c14,0 14,14 0,14l-10 37 -11 6 -99 0 -10 -6 -10 -37c-15,0 -15,-14 0,-14z"/>
   <rect class="fil1 str0" x="60" y="57" width="10.4" height="29.6"/>
   <rect class="fil1 str0" x="90" y="57" width="10.4" height="29.6"/>
   <rect class="fil1 str0" transform="matrix(1 -0 -0.270577 1 124.305 57.2)" width="10.4" height="29.6"/>
   <rect class="fil1 str0" transform="matrix(-1 -0 0.270577 1 36.6954 57.2)" width="10.4" height="29.6"/>
   <polygon class="fil0 str1" points="28,11 39,4 81,4 81,11 46,11 36,17 30,39 20,39 "/>
   <polygon class="fil0 str1" points="133,11 122,4 81,4 81,11 115,11 125,17 132,39 141,39 "/>
   <rect class="fil0" x="60" width="40" height="15"/>
   <rect class="fil2" x="60" y="75" width="10.4" height="12.3"/>
   <rect class="fil2" x="90" y="75" width="10.4" height="12.3"/>
  </g>
 </g>
</svg>
