<?xml version="1.0" encoding="UTF-8"?>
<!DOCTYPE svg PUBLIC "-//W3C//DTD SVG 1.1//EN" "http://www.w3.org/Graphics/SVG/1.1/DTD/svg11.dtd">
<!-- Creator: CorelDRAW SE -->
<?xml-stylesheet href="21316-Cloud-02-27455b72-17d1-45cc-9ff1-9ee9ed5fbbaa.css" type="text/css"?>
<svg xmlns="http://www.w3.org/2000/svg" xml:space="preserve" width="162px" height="100px" version="1.1" style="shape-rendering:geometricPrecision; text-rendering:geometricPrecision; image-rendering:optimizeQuality; fill-rule:evenodd; clip-rule:evenodd"
viewBox="0 0 162 100"
 xmlns:xlink="http://www.w3.org/1999/xlink">
 <g id="Warstwa_x0020_1">
  <metadata id="CorelCorpID_0Corel-Layer"/>
  <g id="_118977528">
   <g>
    <ellipse class="fil0" cx="118" cy="18" rx="12" ry="11"/>
    <ellipse class="fil0" cx="143" cy="19" rx="10" ry="9"/>
    <ellipse class="fil0" cx="130" cy="13" rx="14" ry="13"/>
    <rect class="fil0" x="117" y="24" width="25.1908" height="4.68506"/>
   </g>
   <polygon class="fil1" points="127,17 122,24 116,17 120,17 120,10 123,10 123,17 "/>
   <polygon class="fil2" points="142,17 137,10 132,17 135,17 135,24 139,24 139,17 "/>
  </g>
  <rect class="fil3" x="26" y="49" width="20.493" height="20.3005"/>
  <polygon class="fil4" points="4,38 37,22 69,38 69,69 49,69 49,47 24,47 24,69 4,69 "/>
  <polygon class="fil5" points="20,70 53,70 48,75 26,75 "/>
  <rect class="fil1 str0" x="31" y="34" width="11.5431" height="7.83314"/>
  <line class="fil6 str1" x1="31" y1="38" x2="43" y2= "38" />
  <rect class="fil7" x="126" y="29" width="6.02735" height="58.37"/>
  <line class="fil6 str1" x1="37" y1="41" x2="37" y2= "34" />
  <g id="_118979808">
   <rect class="fil5" transform="matrix(2.80341E-14 -1.05851 1.51238 4.00547E-14 126.99 53.1949)" width="5.02279" height="2.81276"/>
   <rect class="fil5" transform="matrix(2.80341E-14 -1.05851 1.51238 4.00547E-14 126.99 47.8774)" width="5.02279" height="2.81276"/>
  </g>
  <polygon class="fil5 str2" points="14,17 19,17 19,25 14,28 "/>
  <polygon class="fil8" points="0,35 37,16 73,35 73,38 37,19 0,38 "/>
  <line class="fil6 str3" x1="129" y1="87" x2="129" y2= "29" />
  <rect class="fil4" x="106" y="67" width="46.2097" height="9.03616" rx="2" ry="2"/>
  <rect class="fil5" x="146" y="73" width="4.24123" height="1.18755"/>
  <rect class="fil7" x="85" y="45" width="6.02735" height="55.2507"/>
  <rect class="fil7" transform="matrix(2.07513E-14 -1 0.522681 1.76675E-14 84.6231 50.8919)" width="6.02735" height="79.3601"/>
  <line class="fil6 str3" x1="88" y1="100" x2="88" y2= "48" />
  <line class="fil6 str3" x1="129" y1="48" x2="88" y2= "48" />
  <line class="fil6 str3" x1="88" y1="94" x2="7" y2= "94" />
  <g id="_118981272">
   <rect class="fil7" transform="matrix(1.75239E-13 -2.02368 1.32333 1.07193E-14 36.2786 95.0047)" width="9.64375" height="0.602735"/>
   <rect class="fil5" x="31" y="92" width="5.31666" height="4.25397"/>
   <rect class="fil5" x="37" y="92" width="5.31666" height="4.25397"/>
  </g>
  <rect class="fil6 str4" x="109" y="69" width="9.44284" height="1.8082"/>
  <rect class="fil6 str4" x="119" y="69" width="9.44284" height="1.8082"/>
  <rect class="fil9" x="130" y="69" width="1.30593" height="1.8082"/>
  <rect class="fil8" x="131" y="69" width="1.30593" height="1.8082"/>
  <rect class="fil4" x="106" y="77" width="46.2097" height="9.03616" rx="2" ry="2"/>
  <rect class="fil5" x="146" y="83" width="4.24123" height="1.18755"/>
  <rect class="fil6 str4" x="109" y="79" width="9.44284" height="1.8082"/>
  <rect class="fil6 str4" x="119" y="79" width="9.44284" height="1.8082"/>
  <rect class="fil9" x="130" y="79" width="1.30593" height="1.8082"/>
  <rect class="fil8" x="131" y="79" width="1.30593" height="1.8082"/>
  <rect class="fil4" x="106" y="87" width="46.2097" height="9.03616" rx="2" ry="2"/>
  <rect class="fil5" x="146" y="93" width="4.24123" height="1.18755"/>
  <g id="_118984032">
   <rect class="fil7" x="153" y="94" width="9.24231" height="6.2119" rx="1" ry="1"/>
   <circle class="fil1" cx="158" cy="96" r="1"/>
   <path class="fil7" d="M158 89c2,0 4,3 4,4l-3 0c0,-1 0,-2 -1,-2 -1,0 -2,1 -2,2l-2 0c0,-1 1,-4 4,-4z"/>
   <polygon class="fil1" points="158,96 159,99 157,99 "/>
  </g>
  <rect class="fil10" x="108" y="88" width="2.00912" height="1.00456"/>
  <rect class="fil10" x="111" y="88" width="2.00912" height="1.00456"/>
  <rect class="fil10" x="114" y="88" width="2.00912" height="1.00456"/>
  <rect class="fil10" x="117" y="88" width="2.00912" height="1.00456"/>
  <rect class="fil10" x="120" y="88" width="2.00912" height="1.00456"/>
  <rect class="fil10" x="123" y="88" width="2.00912" height="1.00456"/>
  <rect class="fil10" x="126" y="88" width="2.00912" height="1.00456"/>
  <rect class="fil10" x="129" y="88" width="2.00912" height="1.00456"/>
  <rect class="fil10" x="132" y="88" width="2.00912" height="1.00456"/>
  <rect class="fil10" x="135" y="88" width="2.00912" height="1.00456"/>
  <rect class="fil10" x="138" y="88" width="2.00912" height="1.00456"/>
  <rect class="fil10" x="141" y="88" width="2.00912" height="1.00456"/>
  <rect class="fil6 str4" x="108" y="88" width="2.00911" height="7.03192"/>
  <rect class="fil6 str4" x="111" y="88" width="2.00911" height="7.03192"/>
  <rect class="fil6 str4" x="114" y="88" width="2.00911" height="7.03192"/>
  <rect class="fil6 str4" x="117" y="88" width="2.00911" height="7.03192"/>
  <rect class="fil6 str4" x="120" y="88" width="2.00911" height="7.03192"/>
  <rect class="fil6 str4" x="123" y="88" width="2.00911" height="7.03192"/>
  <rect class="fil6 str4" x="126" y="88" width="2.00911" height="7.03192"/>
  <rect class="fil6 str4" x="129" y="88" width="2.00911" height="7.03192"/>
  <rect class="fil6 str4" x="132" y="88" width="2.00911" height="7.03192"/>
  <rect class="fil6 str4" x="135" y="88" width="2.00911" height="7.03192"/>
  <rect class="fil6 str4" x="138" y="88" width="2.00911" height="7.03192"/>
  <rect class="fil9" x="146" y="88" width="1.30593" height="1.8082"/>
  <rect class="fil8" x="148" y="88" width="1.30593" height="1.8082"/>
  <rect class="fil6 str4" x="141" y="88" width="2.00911" height="7.03192"/>
  <g id="_298635768">
   <rect class="fil7" x="153" y="27" width="9.24231" height="6.2119" rx="1" ry="1"/>
   <circle class="fil1" cx="158" cy="29" r="1"/>
   <path class="fil7" d="M158 22c2,0 4,2 4,4l-3 0c0,-1 0,-2 -1,-2 -1,0 -2,1 -2,2l-2 0c0,-2 1,-4 4,-4z"/>
   <polygon class="fil1" points="158,29 159,32 157,32 "/>
  </g>
 </g>
</svg>
