<?xml version="1.0" encoding="UTF-8"?>
<!DOCTYPE svg PUBLIC "-//W3C//DTD SVG 1.1//EN" "http://www.w3.org/Graphics/SVG/1.1/DTD/svg11.dtd">
<!-- Creator: CorelDRAW SE -->
<?xml-stylesheet href="18844-Crypto-01-01938294-a6de-4d28-aa1a-64506a10a6ff.css" type="text/css"?>
<svg xmlns="http://www.w3.org/2000/svg" xml:space="preserve" width="162px" height="100px" version="1.1" style="shape-rendering:geometricPrecision; text-rendering:geometricPrecision; image-rendering:optimizeQuality; fill-rule:evenodd; clip-rule:evenodd"
viewBox="0 0 162 100"
 xmlns:xlink="http://www.w3.org/1999/xlink">
 <g id="Warstwa_x0020_1">
  <metadata id="CorelCorpID_0Corel-Layer"/>
  <rect class="fil0 str0" width="162" height="100"/>
  <g id="_607204712">
   <polygon class="fil1 str1" points="146,89 157,95 157,83 "/>
   <polygon class="fil2" points="146,90 135,96 157,96 "/>
   <polygon class="fil1" points="146,89 135,95 135,83 "/>
   <path class="fil3" d="M146 89l-11 -6c7,-9 15,-9 22,0l-11 6z"/>
   <polygon class="fil2" points="146,84 142,80 143,80 143,71 146,73 149,71 149,80 150,80 "/>
  </g>
  <g id="_607206296">
   <path class="fil3" d="M7 35c-1,-5 2,-6 4,-6 0,-1 1,-1 1,-1 5,1 6,4 6,7 1,0 1,1 1,2 0,1 -1,2 -2,2 0,2 -2,5 -5,5 -2,0 -4,-3 -4,-5 -1,0 -2,-1 -2,-2 0,-1 0,-2 1,-2z"/>
   <path class="fil3" d="M24 51c0,2 -6,3 -12,4l0 -10c1,0 2,0 2,2 0,1 0,1 -1,2l1 2 3 -6c3,2 7,1 7,6z"/>
   <path class="fil3" d="M0 51c0,2 7,3 12,4l0 -10c0,0 -2,0 -2,2 0,1 1,1 2,2l-2 2 -2 -6c-4,2 -8,1 -8,6z"/>
  </g>
  <g id="_607212008">
   <path class="fil3" d="M162 50c0,2 -7,4 -13,4l5 -5 3 0 -3 -4c3,1 8,1 8,5z"/>
   <path class="fil3" d="M137 50c0,2 6,4 12,4l-4 -5 -4 0 4 -4c-4,1 -8,1 -8,5z"/>
   <polygon class="fil3" points="146,43 146,45 149,54 152,45 152,43 "/>
   <path class="fil3" d="M152 28c-1,-2 -5,-1 -7,1 -4,4 -1,9 -5,12 3,3 17,3 19,0 -5,-4 0,-13 -7,-13z"/>
  </g>
  <g id="_606453096">
   <path class="fil4" d="M82 88l6 -4c1,0 1,0 1,1l0 5c1,0 4,1 5,4l0 4c-1,1 -1,1 -2,2l-10 0 0 -12z"/>
   <path class="fil4" d="M80 88l-6 -4c-1,0 -1,0 -1,1l0 5c-1,0 -4,1 -5,4l0 4c1,1 1,1 2,2l10 0 0 -12z"/>
   <path class="fil4" d="M71 77l4 0 1 -4 10 0 1 4 4 0c0,0 1,0 1,1 0,0 -1,0 -1,0l-20 0c0,0 -1,0 -1,0 0,-1 1,-1 1,-1z"/>
   <path class="fil4" d="M76 79l3 0c1,0 1,1 1,2 0,2 0,3 -1,3l-3 0c-1,0 -1,-1 -1,-1l0 -2c0,-1 1,-2 1,-2z"/>
   <path class="fil4" d="M86 79l-3 0c-1,0 -1,1 -1,2 0,2 0,3 1,3l3 0c1,0 1,-1 1,-1l0 -2c0,-1 -1,-2 -1,-2z"/>
  </g>
  <path class="fil5" d="M73 60l9 0 0 2 8 -4 -8 -5 0 2 -9 0 0 5zm4 0m5 1m4 -1m0 -5m-4 -1m-5 1m-4 3"/>
  <g id="_606459432">
   <g>
    <path class="fil6" d="M53 51c3,0 6,3 6,7 0,3 -3,6 -6,6 -4,0 -7,-3 -7,-6 0,-4 3,-7 7,-7z"/>
    <polygon class="fil6" points="52,50 53,50 54,51 51,51 "/>
    <polygon class="fil6" points="52,65 53,65 54,64 51,64 "/>
    <polygon class="fil6" points="47,52 49,51 50,52 48,53 "/>
    <polygon class="fil6" points="57,64 58,63 57,62 55,63 "/>
    <polygon class="fil6" points="45,56 45,55 47,55 46,57 "/>
    <polygon class="fil6" points="60,61 60,59 59,59 58,61 "/>
    <polygon class="fil6" points="45,61 45,59 46,59 47,61 "/>
    <polygon class="fil6" points="60,56 60,55 58,55 59,57 "/>
    <polygon class="fil6" points="49,64 47,63 48,62 50,63 "/>
    <polygon class="fil6" points="58,52 57,51 55,52 57,53 "/>
   </g>
   <g>
    <path class="fil3" d="M57 65c2,0 3,2 3,3 0,1 -1,3 -3,3 -1,0 -2,-2 -2,-3 0,-1 1,-3 2,-3z"/>
    <polygon class="fil3" points="57,65 58,65 58,65 57,65 "/>
    <polygon class="fil3" points="57,71 58,71 58,71 57,71 "/>
    <polygon class="fil3" points="55,66 56,65 56,66 56,66 "/>
    <polygon class="fil3" points="59,71 60,70 59,70 59,70 "/>
    <polygon class="fil3" points="54,67 54,67 55,67 55,68 "/>
    <polygon class="fil3" points="60,69 61,69 60,68 60,69 "/>
    <polygon class="fil3" points="54,69 54,69 55,68 55,69 "/>
    <polygon class="fil3" points="61,67 60,67 60,67 60,68 "/>
    <polygon class="fil3" points="56,71 55,70 56,70 56,70 "/>
    <polygon class="fil3" points="60,66 59,65 59,66 59,66 "/>
   </g>
   <g>
    <path class="fil2" d="M47 66c2,0 4,1 4,4 0,2 -2,3 -4,3 -2,0 -4,-1 -4,-3 0,-3 2,-4 4,-4z"/>
    <polygon class="fil2" points="46,65 47,65 47,66 46,66 "/>
    <polygon class="fil2" points="46,74 47,74 47,73 46,73 "/>
    <polygon class="fil2" points="44,66 44,65 45,66 44,67 "/>
    <polygon class="fil2" points="49,74 50,73 50,72 48,73 "/>
    <polygon class="fil2" points="42,69 42,68 43,68 43,69 "/>
    <polygon class="fil2" points="51,71 51,71 51,70 50,71 "/>
    <polygon class="fil2" points="42,71 42,71 43,70 43,71 "/>
    <polygon class="fil2" points="51,69 51,68 50,68 51,69 "/>
    <polygon class="fil2" points="44,74 44,73 44,72 45,73 "/>
    <polygon class="fil2" points="50,66 49,65 48,66 50,67 "/>
   </g>
  </g>
  <text x="46" y="8"  class="fil3 fnt0">PUBLIC Generator</text>
  <text x="59" y="17"  class="fil3 fnt0">gen=5, p=11</text>
  <text x="63" y="27"  class="fil3 fnt1">5</text>
  <text x="70" y="27"  class="fil3 fnt1"> mod 11</text>
  <text x="67" y="23"  class="fil7 fnt2">x</text>
  <rect class="fil7" width="19" height="15.2"/>
  <text x="1" y="6"  class="fil3 fnt3">Secret</text>
  <text x="6" y="13"  class="fil3 fnt4">19</text>
  <g id="_606450864">
   <path class="fil8" d="M28 43l2 -1c0,1 0,1 1,1 0,1 0,1 1,1 0,0 0,0 1,-1 0,0 0,-1 0,-1 0,-1 0,-1 0,-2 -1,0 -1,0 -1,0 -1,0 -1,0 -2,1l-1 -1 1 -5 5 0 0 2 -4 0 0 2c0,0 1,0 1,0 1,0 2,0 2,0 1,1 1,2 1,3 0,1 0,1 -1,2 0,1 -1,1 -2,1 -1,0 -2,0 -3,0 0,-1 0,-2 -1,-2zm20 -5l1 0 0 1c1,-1 2,-1 3,-1 0,0 0,0 1,0 0,0 0,1 1,1 0,0 0,-1 1,-1 0,0 0,0 1,0 0,0 1,0 1,0 0,0 1,1 1,1 0,0 0,1 0,2l0 4 -2 0 0 -4c0,-1 0,-1 0,-1 0,-1 0,-1 -1,-1 0,0 0,0 0,0 -1,1 -1,1 -1,1 0,1 0,1 0,2l0 3 -2 0 0 -4c0,-1 0,-1 0,-1 0,0 0,0 0,-1 -1,0 -1,0 -1,0 0,0 -1,0 -1,0 0,1 0,1 0,1 0,0 0,1 0,2l0 3 -2 0 0 -7zm12 3c0,0 0,-1 0,-1 0,-1 1,-1 1,-2 1,0 2,0 2,0 1,0 2,0 3,1 1,1 1,1 1,3 0,1 0,1 -1,2 -1,1 -2,1 -3,1 0,0 -1,0 -2,0 0,0 -1,-1 -1,-1 0,-1 0,-2 0,-3zm1 1c0,0 1,1 1,1 0,1 1,1 1,1 1,0 1,0 1,-1 1,0 1,-1 1,-1 0,-1 0,-2 -1,-2 0,0 0,-1 -1,-1 0,0 -1,1 -1,1 0,0 -1,1 -1,2zm14 3l-2 0 0 -1c0,0 0,1 -1,1 0,0 -1,0 -1,0 -1,0 -2,0 -2,-1 -1,0 -1,-1 -1,-2 0,-2 0,-3 1,-3 0,-1 1,-1 2,-1 1,0 1,0 2,1l0 -4 2 0 0 10zm-5 -4c0,1 0,2 0,2 0,1 1,1 1,1 1,0 1,0 2,-1 0,0 0,-1 0,-1 0,-1 0,-2 0,-2 -1,-1 -1,-1 -2,-1 0,0 0,0 -1,1 0,0 0,1 0,1zm15 4l-2 0 0 -7c-1,1 -1,1 -2,1l0 -1c0,0 1,-1 1,-1 1,-1 1,-1 1,-2l2 0 0 10zm7 0l-2 0 0 -7c-1,1 -2,1 -3,1l0 -1c1,0 2,-1 2,-1 1,-1 1,-1 1,-2l2 0 0 10z"/>
   <path class="fil9" d="M38 38l-1 0 0 -3c0,0 -1,0 -1,0l0 0c0,-1 0,-1 1,-1 0,0 0,0 0,-1l1 0 0 5zm2 -1l0 0c0,0 1,0 1,0 0,0 0,1 0,1 0,0 0,-1 0,-1 1,0 1,0 1,-1 0,0 -1,1 -1,1 -1,0 -1,-1 -1,-1 0,0 -1,-1 -1,-1 0,-1 1,-1 1,-1 0,-1 1,-1 1,-1 1,0 1,0 1,1 1,0 1,1 1,2 0,1 0,1 -1,2 0,0 -1,0 -1,0 0,0 -1,0 -1,0 0,0 0,0 0,-1zm2 -2c0,0 0,-1 -1,-1 0,0 0,0 0,0 0,0 0,0 0,0 -1,0 -1,1 -1,1 0,0 0,1 1,1 0,0 0,0 0,0 0,0 0,0 0,0 1,0 1,-1 1,-1z"/>
  </g>
  <path class="fil10 str0" d="M23 19l9 3 -1 1 10 0 -8 -6 0 2 -9 -3 -1 3zm4 1m5 2m4 1m1 -3m-4 -2m-5 -1m-5 0"/>
  <text x="142" y="71"  class="fil7 fnt5">3</text>
  <path class="fil8" d="M44 90l4 0c0,1 0,1 1,1 0,1 1,1 1,1 1,0 2,0 2,-1 1,-1 1,-2 1,-5 -1,2 -2,2 -3,2 -2,0 -3,0 -4,-2 -1,-1 -2,-2 -2,-4 0,-2 1,-4 2,-5 1,-1 2,-2 4,-2 2,0 4,1 5,2 1,2 2,4 2,8 0,4 -1,6 -2,8 -1,1 -3,2 -5,2 -2,0 -3,0 -4,-1 -1,-1 -1,-2 -2,-4zm9 -8c0,-1 0,-2 -1,-3 -1,0 -1,-1 -2,-1 -1,0 -1,0 -2,1 0,1 0,1 0,3 0,1 0,2 0,2 1,1 2,1 2,1 1,0 2,0 2,0 1,-1 1,-2 1,-3z"/>
  <text x="98" y="38"  class="fil11 fnt6">5</text>
  <text x="107" y="38"  class="fil11 fnt6"> mod 11</text>
  <text x="103" y="34"  class="fil7 fnt7">13</text>
  <rect class="fil7" x="142" width="19.5" height="15.6"/>
  <text x="144" y="6"  class="fil3 fnt8">Secret</text>
  <text x="149" y="13"  class="fil3 fnt9">13</text>
  <text x="108" y="62"  class="fil11 fnt10">4</text>
  <path class="fil10 str0" d="M142 19l-9 3 0 1 -10 0 8 -6 1 2 9 -3 1 3zm-5 1m-4 3m-5 0m-1 -3m5 -2m4 -1m5 0"/>
  <text x="101" y="86"  class="fil11 fnt11">9</text>
  <text x="108" y="86"  class="fil11 fnt11"> mod 11</text>
  <text x="104" y="83"  class="fil7 fnt12">13</text>
  <path class="fil10 str0" d="M126 69l7 0 0 1 7 -3 -7 -2 0 1 -7 0 0 3zm4 0m3 0m4 0m0 -3m-4 0m-3 0m-4 1"/>
 </g>
</svg>
