<?xml version="1.0" encoding="UTF-8"?>
<!DOCTYPE svg PUBLIC "-//W3C//DTD SVG 1.1//EN" "http://www.w3.org/Graphics/SVG/1.1/DTD/svg11.dtd">
<!-- Creator: CorelDRAW SE -->
<svg xmlns="http://www.w3.org/2000/svg" xml:space="preserve" width="162px" height="100px" version="1.1" style="shape-rendering:geometricPrecision; text-rendering:geometricPrecision; image-rendering:optimizeQuality; fill-rule:evenodd; clip-rule:evenodd"
viewBox="0 0 162 100"
 xmlns:xlink="http://www.w3.org/1999/xlink">
 <defs>
  <style type="text/css">
   <![CDATA[
    .str1 {stroke:#A2D9F7;stroke-width:0.2}
    .str0 {stroke:black;stroke-width:0.2}
    .fil0 {fill:none}
    .fil11 {fill:none;fill-rule:nonzero}
    .fil1 {fill:#A2D9F7}
    .fil3 {fill:black}
    .fil4 {fill:black}
    .fil2 {fill:#00CCFF}
    .fil6 {fill:#666666}
    .fil9 {fill:red}
    .fil5 {fill:#A2D9F7;fill-rule:nonzero}
    .fil10 {fill:black;fill-rule:nonzero}
    .fil7 {fill:black;fill-rule:nonzero}
    .fil8 {fill:red;fill-rule:nonzero}
   ]]>
  </style>
 </defs>
 <g id="Warstwa_x0020_1">
  <metadata id="CorelCorpID_0Corel-Layer"/>
  <rect class="fil0 str0" width="162" height="100"/>
  <g id="_1078100384">
   <polygon class="fil1 str1" points="146,89 157,95 157,83 "/>
   <polygon class="fil2" points="146,90 135,96 157,96 "/>
   <polygon class="fil1" points="146,89 135,95 135,83 "/>
   <path class="fil3" d="M146 89l-11 -6c7,-9 15,-9 22,0l-11 6z"/>
   <polygon class="fil2" points="146,84 142,80 143,80 143,71 146,73 149,71 149,80 150,80 "/>
  </g>
  <g id="_1078101776">
   <path class="fil3" d="M7 35c-1,-5 2,-6 4,-6 0,-1 1,-1 1,-1 5,1 6,4 6,7 1,0 1,1 1,2 0,1 -1,2 -2,2 0,2 -2,5 -5,5 -2,0 -4,-3 -4,-5 -1,0 -2,-1 -2,-2 0,-1 0,-2 1,-2z"/>
   <path class="fil3" d="M24 51c0,2 -6,3 -12,4l0 -10c1,0 2,0 2,2 0,1 0,1 -1,2l1 2 3 -6c3,2 7,1 7,6z"/>
   <path class="fil3" d="M0 51c0,2 7,3 12,4l0 -10c0,0 -2,0 -2,2 0,1 1,1 2,2l-2 2 -2 -6c-4,2 -8,1 -8,6z"/>
  </g>
  <g id="_1078102688">
   <path class="fil3" d="M162 50c0,2 -7,4 -13,4l5 -5 3 0 -3 -4c3,1 8,1 8,5z"/>
   <path class="fil3" d="M137 50c0,2 6,4 12,4l-4 -5 -4 0 4 -4c-4,1 -8,1 -8,5z"/>
   <polygon class="fil3" points="146,43 146,45 149,54 152,45 152,43 "/>
   <path class="fil3" d="M152 28c-1,-2 -5,-1 -7,1 -4,4 -1,9 -5,12 3,3 17,3 19,0 -5,-4 0,-13 -7,-13z"/>
  </g>
  <g id="_1078102952">
   <path class="fil4" d="M82 88l6 -4c1,0 1,0 1,1l0 5c1,0 4,1 5,4l0 4c-1,1 -1,1 -2,2l-10 0 0 -12z"/>
   <path class="fil4" d="M80 88l-6 -4c-1,0 -1,0 -1,1l0 5c-1,0 -4,1 -5,4l0 4c1,1 1,1 2,2l10 0 0 -12z"/>
   <path class="fil4" d="M71 77l4 0 1 -4 10 0 1 4 4 0c0,0 1,0 1,1 0,0 -1,0 -1,0l-20 0c0,0 -1,0 -1,0 0,-1 1,-1 1,-1z"/>
   <path class="fil4" d="M76 79l3 0c1,0 1,1 1,2 0,2 0,3 -1,3l-3 0c-1,0 -1,-1 -1,-1l0 -2c0,-1 1,-2 1,-2z"/>
   <path class="fil4" d="M86 79l-3 0c-1,0 -1,1 -1,2 0,2 0,3 1,3l3 0c1,0 1,-1 1,-1l0 -2c0,-1 -1,-2 -1,-2z"/>
  </g>
  <path class="fil5" d="M72 68l9 0 0 3 9 -5 -9 -5 0 3 -9 0 0 4zm5 0m4 1m4 -1m0 -4m-4 -1m-4 1m-5 2"/>
  <g id="_1078103816">
   <g>
    <path class="fil6" d="M50 20c4,0 6,3 6,6 0,4 -2,7 -6,7 -4,0 -6,-3 -6,-7 0,-3 2,-6 6,-6z"/>
    <polygon class="fil6" points="49,19 51,19 51,20 49,20 "/>
    <polygon class="fil6" points="49,34 51,34 51,33 49,33 "/>
    <polygon class="fil6" points="45,21 46,20 47,21 45,22 "/>
    <polygon class="fil6" points="54,33 55,32 55,31 53,32 "/>
    <polygon class="fil6" points="42,25 43,23 44,23 44,26 "/>
    <polygon class="fil6" points="57,30 58,28 56,27 56,29 "/>
    <polygon class="fil6" points="43,30 42,28 44,27 44,29 "/>
    <polygon class="fil6" points="58,25 57,23 56,23 56,26 "/>
    <polygon class="fil6" points="46,33 45,32 45,31 47,32 "/>
    <polygon class="fil6" points="55,21 54,20 53,21 55,22 "/>
   </g>
   <g>
    <path class="fil3" d="M55 34c1,0 3,1 3,3 0,1 -2,2 -3,2 -2,0 -3,-1 -3,-2 0,-2 1,-3 3,-3z"/>
    <polygon class="fil3" points="55,34 55,34 55,34 54,34 "/>
    <polygon class="fil3" points="55,40 55,40 55,39 54,39 "/>
    <polygon class="fil3" points="53,34 53,34 54,34 53,35 "/>
    <polygon class="fil3" points="57,40 57,39 57,39 56,39 "/>
    <polygon class="fil3" points="52,36 52,36 53,36 52,36 "/>
    <polygon class="fil3" points="58,38 58,37 57,37 57,38 "/>
    <polygon class="fil3" points="52,38 52,37 52,37 53,38 "/>
    <polygon class="fil3" points="58,36 58,36 57,36 57,36 "/>
    <polygon class="fil3" points="53,40 53,39 53,39 54,39 "/>
    <polygon class="fil3" points="57,34 57,34 56,34 57,35 "/>
   </g>
   <g>
    <path class="fil2" d="M44 34c2,0 4,2 4,4 0,2 -2,4 -4,4 -2,0 -4,-2 -4,-4 0,-2 2,-4 4,-4z"/>
    <polygon class="fil2" points="44,34 45,34 45,35 44,35 "/>
    <polygon class="fil2" points="44,43 45,43 45,42 44,42 "/>
    <polygon class="fil2" points="41,35 42,34 43,35 41,36 "/>
    <polygon class="fil2" points="47,42 47,42 47,41 46,42 "/>
    <polygon class="fil2" points="40,37 40,36 41,37 40,38 "/>
    <polygon class="fil2" points="49,40 49,39 48,39 48,40 "/>
    <polygon class="fil2" points="40,40 40,39 40,39 41,40 "/>
    <polygon class="fil2" points="49,37 49,36 48,37 48,38 "/>
    <polygon class="fil2" points="42,42 41,42 41,41 43,42 "/>
    <polygon class="fil2" points="47,35 47,34 46,35 47,36 "/>
   </g>
  </g>
  <path class="fil7" d="M48 8l0 -6 2 0c0,0 1,0 1,0 0,0 0,0 1,0 0,0 0,1 0,1 0,0 0,0 0,1 0,0 0,1 0,1 -1,0 -1,0 -2,0l-2 0 0 3 0 0zm0 -3l2 0c0,0 1,0 1,-1 0,0 0,0 0,0 0,-1 0,-1 0,-1 0,0 0,0 0,0 0,0 -1,0 -1,0l-2 0 0 2z"/>
  <path id="1" class="fil7" d="M57 2l1 0 0 3c0,1 0,1 0,2 0,0 -1,0 -1,1 0,0 -1,0 -1,0 -1,0 -1,0 -2,0 0,0 0,-1 -1,-1 0,0 0,-1 0,-2l0 -3 1 0 0 3c0,1 0,1 0,2 0,0 0,0 1,0 0,0 0,0 0,0 1,0 1,0 2,0 0,0 0,-1 0,-2l0 -3z"/>
  <path id="2" class="fil7" d="M59 8l0 -6 2 0c1,0 1,0 2,0 0,0 0,0 0,1 0,0 0,0 0,0 0,1 0,1 0,1 0,0 0,1 0,1 0,0 0,0 0,0 1,1 1,1 1,1 0,0 0,1 0,1 -1,0 -1,0 -1,1 0,0 0,0 -1,0 0,0 0,0 -1,0l-2 0zm1 -4l1 0c1,0 1,0 1,0 0,0 0,0 0,0 1,0 1,0 1,0 0,-1 0,-1 -1,-1 0,0 0,0 0,0 0,0 0,0 -1,0l-1 0 0 1zm0 3l1 0c1,0 1,0 1,0 0,0 0,0 0,0 1,0 1,0 1,0 0,0 0,-1 0,-1 0,0 0,0 0,0 0,-1 -1,-1 -1,-1 0,0 0,0 -1,0l-1 0 0 2z"/>
  <polygon id="3" class="fil7" points="65,8 65,2 66,2 66,7 68,7 68,8 "/>
  <polygon id="4" class="fil7" points="70,8 70,2 70,2 70,8 "/>
  <path id="5" class="fil7" d="M76 6l1 0c0,1 -1,1 -1,2 -1,0 -1,0 -2,0 0,0 -1,0 -1,0 -1,-1 -1,-1 -1,-2 0,0 0,-1 0,-1 0,-1 0,-1 0,-2 0,0 0,-1 1,-1 0,0 1,0 1,0 1,0 1,0 2,0 0,1 1,1 1,2l-1 0c0,-1 0,-1 -1,-1 0,0 0,0 -1,0 0,0 -1,0 -1,0 0,0 0,0 0,1 -1,0 -1,0 -1,1 0,0 0,1 1,1 0,1 0,1 0,1 1,0 1,0 1,0 1,0 1,0 1,0 1,0 1,-1 1,-1z"/>
  <path id="6" class="fil7" d="M83 6l0 -1 2 0 0 2c0,0 0,1 -1,1 0,0 -1,0 -1,0 -1,0 -1,0 -2,0 0,-1 0,-1 -1,-1 0,-1 0,-1 0,-2 0,-1 0,-1 0,-2 1,0 1,-1 1,-1 1,0 1,0 2,0 0,0 1,0 1,0 0,0 1,0 1,1 0,0 0,0 0,1l0 0c0,0 -1,-1 -1,-1 0,0 0,0 0,0 -1,0 -1,0 -1,0 0,0 -1,0 -1,0 0,0 -1,0 -1,0 0,0 0,0 0,1 0,0 0,0 0,1 0,0 0,1 0,1 0,1 0,1 1,1 0,0 1,0 1,0 0,0 1,0 1,0 0,0 0,0 1,0l0 -1 -2 0z"/>
  <path id="7" class="fil7" d="M89 7l1 0c0,0 0,0 0,1 -1,0 -1,0 -2,0 0,0 -1,0 -1,-1 -1,0 -1,-1 -1,-1 0,-1 0,-2 1,-2 0,0 1,-1 1,-1 1,0 1,1 2,1 0,0 0,1 0,2 0,0 0,0 0,0l-3 0c0,0 0,1 0,1 1,0 1,0 1,0 1,0 1,0 1,0 0,0 0,0 0,0zm-2 -2l2 0c0,0 0,0 0,0 0,-1 0,-1 -1,-1 0,0 0,0 -1,0 0,1 0,1 0,1z"/>
  <path id="8" class="fil7" d="M91 8l0 -4 1 0 0 0c0,0 1,-1 1,-1 0,0 1,1 1,1 0,0 0,0 0,0 0,0 1,0 1,1 0,0 0,0 0,0l0 3 -1 0 0 -3c0,0 0,0 0,0 0,-1 0,-1 0,-1 -1,0 -1,0 -1,0 0,0 -1,0 -1,0 0,1 0,1 0,2l0 2 -1 0z"/>
  <path id="9" class="fil7" d="M99 7l1 0c-1,0 -1,0 -1,1 0,0 -1,0 -1,0 -1,0 -2,0 -2,-1 0,0 0,-1 0,-1 0,-1 0,-2 0,-2 0,0 1,-1 2,-1 0,0 1,1 1,1 0,0 1,1 1,2 0,0 0,0 0,0l-4 0c0,0 0,1 1,1 0,0 0,0 1,0 0,0 0,0 0,0 0,0 1,0 1,0zm-3 -2l3 0c0,0 0,0 -1,0 0,-1 0,-1 0,-1 -1,0 -1,0 -1,0 -1,1 -1,1 -1,1z"/>
  <path id="10" class="fil7" d="M100 8l0 -4 1 0 0 0c0,0 0,0 1,0 0,0 0,-1 0,-1 0,0 1,1 1,1l0 0c-1,0 -1,0 -1,0 0,0 0,0 0,0 -1,0 -1,1 -1,1 0,0 0,0 0,1l0 2 -1 0z"/>
  <path id="11" class="fil7" d="M106 7c0,1 0,1 -1,1 0,0 0,0 -1,0 0,0 0,0 -1,0 0,-1 0,-1 0,-1 0,0 0,-1 0,-1 0,0 0,0 0,0 1,0 1,0 1,0 0,-1 0,-1 1,-1 0,0 1,0 1,0 0,0 0,0 0,0 0,0 0,-1 0,-1 0,0 -1,0 -1,0 0,0 -1,0 -1,0 0,0 0,1 0,1l-1 0c0,0 0,-1 0,-1 1,0 1,0 1,0 0,0 1,-1 1,-1 0,0 1,1 1,1 0,0 0,0 0,0 1,0 1,0 1,0 0,1 0,1 0,1l0 1c0,1 0,1 0,1 0,1 0,1 0,1l-1 0c0,0 0,0 0,-1zm0 -1c0,0 -1,0 -1,0 -1,0 -1,0 -1,0 0,0 0,0 0,0 0,1 0,1 0,1 0,0 0,0 0,0 0,0 0,0 1,0 0,0 0,0 0,0 1,0 1,0 1,0 0,0 0,-1 0,-1l0 0z"/>
  <path id="12" class="fil7" d="M109 7l1 1c-1,0 -1,0 -1,0 0,0 0,0 -1,0 0,0 0,0 0,0 0,-1 0,-1 0,-1l0 -3 -1 0 0 0 1 0 0 -1 1 -1 0 2 0 0 0 0 0 0 0 3c0,0 0,0 0,0 0,0 0,0 0,0 0,0 0,0 0,0 0,0 0,0 0,0z"/>
  <path id="13" class="fil7" d="M110 6c0,-1 0,-2 1,-2 0,0 0,-1 1,-1 1,0 1,1 1,1 1,0 1,1 1,2 0,0 0,1 0,1 0,0 -1,1 -1,1 0,0 -1,0 -1,0 -1,0 -1,0 -2,-1 0,0 0,-1 0,-1zm1 0c0,0 0,1 0,1 0,0 1,0 1,0 0,0 1,0 1,0 0,0 0,-1 0,-1 0,-1 0,-1 0,-1 0,-1 -1,-1 -1,-1 0,0 -1,0 -1,1 0,0 0,0 0,1z"/>
  <path id="14" class="fil7" d="M115 8l0 -4 0 0 0 0c1,0 1,0 1,0 0,0 0,-1 0,-1 1,0 1,1 1,1l0 0c0,0 0,0 -1,0 0,0 0,0 0,0 0,0 0,1 0,1 0,0 0,0 0,1l0 2 -1 0z"/>
  <path id="15" class="fil7" d="M59 18l1 0c0,0 0,0 0,0 0,0 1,0 1,0 0,0 1,0 1,0 0,0 0,0 0,0 0,-1 0,-1 0,-1 0,0 -1,0 -1,0 -1,0 -1,0 -1,0 -1,-1 -1,-1 -1,-2 0,0 0,-1 0,-1 1,0 1,-1 1,-1 0,0 1,0 1,0 1,0 1,0 1,0l0 0 1 0 0 4c0,0 0,1 0,1 0,0 -1,1 -1,1 0,0 -1,0 -1,0 -1,0 -1,0 -1,0 -1,-1 -1,-1 -1,-1zm1 -3c0,1 0,1 0,1 0,1 1,1 1,1 0,0 1,0 1,-1 0,0 0,0 0,-1 0,0 0,-1 0,-1 0,0 -1,-1 -1,-1 0,0 -1,1 -1,1 0,0 0,0 0,1z"/>
  <path id="16" class="fil7" d="M67 16l1 0c0,0 -1,1 -1,1 0,0 -1,0 -1,0 -1,0 -1,0 -2,0 0,-1 0,-1 0,-2 0,-1 0,-1 0,-2 1,0 1,0 2,0 0,0 1,0 1,0 1,1 1,1 1,2 0,0 0,0 0,0l-3 0c0,1 0,1 0,1 0,1 1,1 1,1 0,0 0,0 1,0 0,-1 0,-1 0,-1zm-2 -1l2 0c0,-1 0,-1 0,-1 0,0 -1,-1 -1,-1 0,0 -1,1 -1,1 0,0 0,0 0,1z"/>
  <path id="17" class="fil7" d="M69 17l0 -4 0 0 0 1c1,-1 1,-1 2,-1 0,0 0,0 0,0 1,0 1,0 1,0 0,0 0,1 0,1 0,0 0,0 0,1l0 2 -1 0 0 -2c0,-1 0,-1 0,-1 0,0 0,0 0,0 0,0 0,-1 0,-1 -1,0 -1,1 -1,1 0,0 -1,0 -1,1l0 2 0 0z"/>
  <path id="18" class="fil7" d="M77 14l-4 0 0 -1 4 0 0 1zm0 2l-4 0 0 -1 4 0 0 1z"/>
  <path id="19" class="fil7" d="M78 16l1 0c0,0 0,0 0,0 0,1 1,1 1,1 0,0 1,0 1,-1 0,0 0,0 0,-1 0,0 0,0 0,-1 0,0 -1,0 -1,0 0,0 -1,0 -1,0 0,0 0,0 0,1l-1 -1 1 -3 3 0 0 1 -3 0 0 2c0,-1 1,-1 1,-1 1,0 1,0 1,1 1,0 1,1 1,1 0,1 0,1 0,2 -1,0 -1,0 -2,0 -1,0 -1,0 -1,0 -1,0 -1,-1 -1,-1z"/>
  <path id="20" class="fil7" d="M83 17l0 -1 1 0 0 1c0,1 0,1 0,1 0,0 -1,0 -1,0l0 0c0,0 0,0 0,0 0,0 0,-1 0,-1l0 0z"/>
  <path id="21" class="fil7" d="M88 19l0 -6 0 0 0 0c0,0 1,0 1,0 0,0 0,0 0,0 1,0 1,0 1,0 1,0 1,1 1,1 0,0 0,1 0,1 0,0 0,1 0,1 0,1 0,1 -1,1 0,0 0,0 -1,0 0,0 0,0 0,0 0,0 -1,0 -1,0l0 2 0 0zm0 -4c0,1 0,1 1,1 0,1 0,1 0,1 1,0 1,0 1,-1 0,0 1,0 1,-1 0,-1 -1,-1 -1,-1 0,0 0,-1 -1,-1 0,0 0,1 0,1 -1,0 -1,1 -1,1z"/>
  <path id="22" class="fil7" d="M96 14l-4 0 0 -1 4 0 0 1zm0 2l-4 0 0 -1 4 0 0 1z"/>
  <path id="23" class="fil7" d="M100 17l-1 0 0 -4c0,0 -1,0 -1,0 0,0 0,0 -1,0l0 0c1,0 1,-1 1,-1 1,0 1,0 1,-1l1 0 0 6z"/>
  <path id="24" class="fil7" d="M104 17l-1 0 0 -4c0,0 -1,0 -1,0 0,0 0,0 -1,0l0 0c1,0 1,-1 1,-1 1,0 1,0 1,-1l1 0 0 6z"/>
  <path id="25" class="fil7" d="M63 25l1 0c1,0 1,0 1,1 0,0 0,0 0,0 1,0 1,0 1,-1 0,0 0,0 0,0 0,-1 0,-1 0,-1 0,0 0,-1 -1,-1 0,0 0,1 -1,1l-1 0 1 -3 3 0 0 1 -2 0 0 1c0,0 0,0 1,0 0,0 0,0 1,0 0,0 0,1 0,2 0,0 0,1 0,1 0,0 -1,1 -2,1 0,0 -1,0 -1,-1 0,0 -1,0 -1,-1z"/>
  <path id="26" class="fil7" d="M73 22l1 0 0 1c0,-1 1,-1 1,-1 0,0 1,0 1,0 0,0 0,1 0,1 1,0 1,-1 1,-1 0,0 0,0 1,0 0,0 0,0 1,0 0,0 0,1 0,1 0,0 0,0 0,1l0 3 -1 0 0 -3c0,0 0,-1 0,-1 0,0 0,0 -1,0 0,0 0,0 0,0 0,0 0,0 0,1 0,0 0,0 0,0l0 3 -2 0 0 -3c0,0 0,0 0,-1 0,0 0,0 0,0 0,0 0,0 0,0 0,0 -1,0 -1,0 0,0 0,0 0,1 0,0 0,0 0,0l0 3 -1 0 0 -5z"/>
  <path id="27" class="fil7" d="M80 24c0,0 0,0 0,-1 0,0 1,0 1,-1 0,0 1,0 1,0 1,0 1,0 2,1 0,0 0,1 0,1 0,1 0,2 0,2 -1,0 -1,1 -2,1 0,0 -1,0 -1,-1 0,0 -1,0 -1,0 0,-1 0,-1 0,-2zm1 0c0,1 0,1 1,1 0,1 0,1 0,1 1,0 1,0 1,-1 0,0 0,0 0,-1 0,0 0,0 0,-1 0,0 0,0 -1,0 0,0 0,0 0,0 -1,1 -1,1 -1,1z"/>
  <path id="28" class="fil7" d="M89 27l-1 0 0 -1c0,0 0,0 0,0 -1,1 -1,1 -1,1 -1,0 -1,-1 -1,-1 -1,0 -1,-1 -1,-2 0,0 0,-1 1,-1 0,-1 0,-1 1,-1 0,0 1,0 1,1l0 -2 1 0 0 6zm-3 -3c0,1 0,1 1,1 0,1 0,1 0,1 1,0 1,0 1,-1 0,0 0,0 0,-1 0,0 0,0 0,-1 0,0 0,0 -1,0 0,0 0,0 0,0 -1,1 -1,1 -1,1z"/>
  <path id="29" class="fil7" d="M95 27l-1 0 0 -5c0,1 -1,1 -1,1l0 -1c0,0 0,0 1,0 0,-1 0,-1 1,-1l0 0 0 6z"/>
  <path id="30" class="fil7" d="M100 27l-1 0 0 -5c-1,1 -1,1 -2,1l0 -1c0,0 1,0 1,0 0,-1 1,-1 1,-1l1 0 0 6z"/>
  <polygon id="31" class="fil8" points="68,22 68,21 68,20 68,20 69,21 69,20 70,20 69,21 70,22 69,22 69,22 68,22 "/>
  <rect class="fil9" width="19" height="15.2"/>
  <path class="fil7" d="M1 5l1 0c0,0 0,0 0,0 0,0 0,0 1,0 0,1 0,1 0,1 0,0 1,0 1,0 0,-1 0,-1 0,-1 0,0 0,0 0,0 0,0 0,0 0,0 0,-1 0,-1 0,-1 0,0 -1,0 -1,0 0,0 -1,0 -1,0 0,0 0,0 0,-1 0,0 0,0 0,0 0,0 0,0 0,-1 0,0 0,0 0,0 1,0 1,0 1,0 0,0 1,0 1,0 0,0 0,0 0,0 1,1 1,1 1,1l-1 0c0,0 0,0 0,-1 0,0 -1,0 -1,0 0,0 0,0 -1,0 0,1 0,1 0,1 0,0 0,0 0,0 0,0 1,0 1,1 1,0 1,0 1,0 0,0 0,0 1,0 0,0 0,1 0,1 0,0 0,0 0,0 -1,1 -1,1 -1,1 0,0 0,0 -1,0 0,0 0,0 -1,0 0,0 0,0 0,-1 0,0 -1,0 -1,0z"/>
  <path id="1" class="fil7" d="M7 5l1 0c0,0 0,1 0,1 -1,0 -1,0 -1,0 -1,0 -1,0 -1,0 -1,-1 -1,-1 -1,-1 0,-1 0,-1 1,-2 0,0 0,0 1,0 0,0 0,0 1,0 0,1 0,1 0,2 0,0 0,0 0,0l-2 0c0,0 0,0 0,0 0,1 0,1 1,1 0,0 0,0 0,0 0,-1 0,-1 0,-1zm-1 -1l2 0c-1,0 -1,0 -1,0 0,-1 0,-1 0,-1 -1,0 -1,0 -1,1 0,0 0,0 0,0z"/>
  <path id="2" class="fil7" d="M11 5l0 0c0,0 0,1 0,1 -1,0 -1,0 -1,0 -1,0 -1,0 -1,0 0,-1 0,-1 0,-1 0,-1 0,-1 0,-1 0,-1 0,-1 0,-1 0,0 1,0 1,0 0,0 0,0 1,0 0,0 0,1 0,1l0 0c0,0 -1,0 -1,0 0,-1 0,-1 0,-1 0,0 -1,0 -1,1 0,0 0,0 0,1 0,0 0,0 0,0 0,1 1,1 1,1 0,0 0,0 0,-1 1,0 1,0 1,0z"/>
  <path id="3" class="fil7" d="M12 6l0 -3 0 0 0 0c0,0 0,0 0,0 0,0 1,0 1,0 0,0 0,0 0,0l0 1c0,0 0,-1 0,-1 0,0 -1,1 -1,1 0,0 0,0 0,0 0,0 0,0 0,0l0 2 0 0z"/>
  <path id="4" class="fil7" d="M16 5l0 0c0,0 0,1 0,1 -1,0 -1,0 -1,0 -1,0 -1,0 -1,0 -1,-1 -1,-1 -1,-1 0,-1 0,-1 1,-2 0,0 0,0 1,0 0,0 0,0 1,0 0,1 0,1 0,2 0,0 0,0 0,0l-2 0c0,0 0,0 0,0 0,1 1,1 1,1 0,0 0,0 0,0 0,-1 0,-1 1,-1zm-2 -1l2 0c0,0 -1,0 -1,0 0,-1 0,-1 0,-1 0,0 -1,0 -1,1 0,0 0,0 0,0z"/>
  <path id="5" class="fil7" d="M18 6l0 0c0,0 0,0 0,0 -1,0 -1,0 -1,0 0,0 0,0 0,0 0,0 0,-1 0,-1l0 -2 -1 0 0 0 1 0 0 -1 0 0 0 1 1 0 0 0 -1 0 0 2c0,0 0,0 0,0 0,0 0,1 0,1 0,0 1,0 1,0 0,0 0,0 0,0z"/>
  <path id="6" class="fil7" d="M9 13l-1 0 0 -3c0,0 -1,0 -1,0l0 -1c0,0 0,0 0,0 1,0 1,0 1,-1l1 0 0 5z"/>
  <path id="7" class="fil7" d="M10 12l1 -1c0,1 0,1 0,1 0,0 0,0 0,0 0,0 0,0 0,0 1,0 1,-1 1,-1 0,0 -1,0 -1,0 0,0 -1,0 -1,0 0,-1 0,-1 0,-1 0,-1 0,-1 0,-1 0,-1 1,-1 1,-1 1,0 1,0 1,1 0,0 1,1 1,1 0,1 -1,2 -1,2 0,0 -1,1 -1,1 0,0 -1,-1 -1,-1 0,0 0,0 0,0zm2 -2c0,0 0,-1 -1,-1 0,0 0,0 0,0 0,0 0,0 0,0 0,0 0,0 0,1 0,0 0,0 0,0 0,0 0,1 0,1 0,0 0,-1 0,-1 1,0 1,0 1,0z"/>
  <g id="_1078115312">
   <path class="fil10" d="M31 54l1 0c0,0 0,0 0,1 1,0 1,0 1,0 0,0 0,0 1,0 0,-1 0,-1 0,-1 0,-1 0,-1 0,-1 -1,-1 -1,-1 -1,-1 0,0 -1,0 -1,1l-1 0 1 -4 3 0 0 1 -2 0 -1 2c1,-1 1,-1 1,-1 1,0 1,1 2,1 0,0 0,1 0,2 0,0 0,1 0,1 -1,1 -1,1 -2,1 -1,0 -1,0 -2,-1 0,0 0,0 0,-1zm13 -3l1 0 0 1c0,-1 1,-1 1,-1 1,0 1,0 1,0 0,0 0,0 1,1 0,-1 0,-1 0,-1 0,0 1,0 1,0 0,0 1,0 1,0 0,0 0,0 0,1 0,0 1,0 1,1l0 3 -2 0 0 -3c0,0 0,-1 0,-1 0,0 0,0 0,0 -1,0 -1,0 -1,0 0,0 0,0 0,0 0,1 0,1 0,1l0 3 -2 0 0 -3c0,0 0,-1 0,-1 0,0 0,0 0,0 0,0 0,0 0,0 0,0 -1,0 -1,0 0,0 0,0 0,0 0,1 0,1 0,1l0 3 -1 0 0 -5zm7 2c0,0 1,-1 1,-1 0,0 0,-1 1,-1 0,0 0,0 1,0 1,0 1,0 2,1 0,0 0,1 0,1 0,1 0,2 0,2 -1,1 -1,1 -2,1 -1,0 -1,0 -1,0 -1,-1 -1,-1 -1,-1 0,-1 -1,-1 -1,-2zm2 0c0,1 0,1 0,1 0,1 1,1 1,1 0,0 1,0 1,-1 0,0 0,0 0,-1 0,0 0,0 0,-1 0,0 -1,0 -1,0 0,0 -1,0 -1,0 0,1 0,1 0,1zm9 3l-2 0 0 -1c0,0 0,0 0,1 0,0 -1,0 -1,0 -1,0 -1,0 -1,-1 -1,0 -1,-1 -1,-2 0,0 0,-1 1,-1 0,-1 0,-1 1,-1 1,0 1,0 1,1l0 -3 2 0 0 7zm-4 -3c0,1 0,1 1,1 0,1 0,1 0,1 1,0 1,0 1,-1 0,0 0,0 0,-1 0,0 0,-1 0,-1 0,0 0,0 -1,0 0,0 0,0 0,0 -1,0 -1,1 -1,1zm10 3l-1 0 0 -5c0,0 -1,1 -2,1l0 -1c1,0 1,0 2,-1 0,0 0,0 0,-1l1 0 0 7zm5 0l-1 0 0 -5c-1,0 -1,1 -2,1l0 -1c0,0 1,0 1,-1 0,0 1,0 1,-1l1 0 0 7z"/>
   <path class="fil8" d="M37 51l0 0 0 -2c-1,0 -1,0 -1,0l0 0c0,0 0,0 0,-1 1,0 1,0 1,0l0 0 0 3zm1 -1l1 0c0,0 0,1 0,1 0,0 0,0 0,0 0,0 0,0 0,0 1,-1 1,-1 1,-1 -1,0 -1,0 -1,0 0,0 0,0 -1,0 0,0 0,-1 0,-1 0,0 0,-1 0,-1 1,0 1,0 1,0 0,0 1,0 1,0 0,1 0,1 0,2 0,0 0,1 0,1 0,0 -1,0 -1,0 0,0 0,0 -1,0 0,0 0,0 0,-1zm2 -1c0,0 0,0 -1,0 0,-1 0,-1 0,-1 0,0 0,0 0,1 0,0 0,0 0,0 0,0 0,0 0,0 0,1 0,1 0,1 0,0 0,0 0,-1 1,0 1,0 1,0z"/>
  </g>
  <path class="fil11 str0" d="M23 19l9 3 -1 1 10 0 -8 -6 0 2 -9 -3 -1 3zm4 1m5 2m4 1m1 -3m-4 -2m-5 -1m-5 0"/>
  <path class="fil8" d="M143 67l2 0c0,1 1,1 1,1 0,1 1,1 1,1 1,0 1,0 1,-1 1,0 1,-1 1,-1 0,-1 0,-1 -1,-2 0,0 0,0 -1,0 0,0 -1,0 -1,0l0 -2c1,0 1,0 2,0 0,-1 0,-1 0,-2 0,0 0,0 0,-1 0,0 -1,0 -1,0 0,0 -1,0 -1,0 0,1 -1,1 -1,2l-2 -1c0,-1 0,-1 1,-2 0,0 1,0 1,-1 1,0 1,0 2,0 1,0 2,0 3,1 1,1 1,1 1,2 0,1 -1,2 -2,3 1,0 1,0 2,1 0,1 0,1 0,2 0,1 0,2 -1,3 -1,1 -2,1 -3,1 -1,0 -2,0 -3,-1 -1,-1 -1,-2 -1,-3z"/>
  <path class="fil10" d="M46 72l3 0c0,0 0,1 1,1 0,0 0,0 1,0 0,0 1,0 1,0 1,-1 1,-2 1,-4 -1,1 -2,1 -3,1 -1,0 -2,0 -3,-1 -1,-1 -1,-2 -1,-4 0,-1 0,-3 1,-4 1,-1 2,-1 4,-1 1,0 3,1 4,2 1,1 1,3 1,6 0,3 0,5 -1,6 -1,1 -3,2 -5,2 -1,0 -2,0 -2,-1 -1,-1 -2,-2 -2,-3zm7 -7c0,0 0,-1 -1,-2 0,0 -1,-1 -1,-1 -1,0 -1,1 -2,1 0,1 0,1 0,2 0,1 0,2 0,2 1,1 1,1 2,1 0,0 1,0 1,-1 1,0 1,-1 1,-2z"/>
  <path class="fil10" d="M99 37l1 -1c0,1 0,1 0,1 0,0 0,0 0,0 1,0 1,0 1,0 0,0 0,0 0,-1 0,0 0,0 0,-1 0,0 0,0 -1,0 0,0 0,0 0,1l-1 -1 0 -2 3 0 0 1 -2 0 0 1c0,-1 0,-1 1,-1 0,0 0,1 1,1 0,0 0,1 0,1 0,1 0,1 0,1 0,1 -1,1 -2,1 0,0 0,0 -1,0 0,-1 0,-1 0,-1z"/>
  <path id="1" class="fil10" d="M109 34l1 0 0 1c1,-1 1,-1 1,-1 1,0 1,0 1,0 0,0 0,0 1,1 0,-1 0,-1 0,-1 0,0 0,0 1,0 0,0 0,0 0,0 1,0 1,0 1,1 0,0 0,0 0,0l0 3 -1 0 0 -2c0,-1 0,-1 0,-1 0,0 0,0 -1,0 0,0 0,0 0,0 0,0 0,0 0,0 0,0 0,1 0,1l0 2 -1 0 0 -2c0,-1 0,-1 0,-1 0,0 -1,0 -1,0 0,0 0,0 0,0 0,0 0,0 0,0 0,0 -1,0 -1,0 0,0 0,1 0,1l0 2 -1 0 0 -4z"/>
  <path id="2" class="fil10" d="M116 36c0,0 0,-1 0,-1 0,0 0,-1 1,-1 0,0 0,0 1,0 0,0 1,0 1,1 1,0 1,0 1,1 0,1 0,1 -1,1 0,1 -1,1 -1,1 -1,0 -1,0 -1,0 -1,0 -1,-1 -1,-1 0,0 0,-1 0,-1zm1 0c0,0 0,1 0,1 0,0 1,0 1,0 0,0 0,0 0,0 1,0 1,-1 1,-1 0,0 0,-1 -1,-1 0,0 0,0 0,0 0,0 -1,0 -1,0 0,0 0,1 0,1z"/>
  <path id="3" class="fil10" d="M124 38l-1 0 0 -1c0,1 0,1 0,1 -1,0 -1,0 -1,0 0,0 -1,0 -1,0 0,-1 -1,-1 -1,-2 0,-1 1,-1 1,-2 0,0 1,0 1,0 0,0 1,0 1,1l0 -2 1 0 0 5zm-3 -2c0,0 0,1 1,1 0,0 0,0 0,0 1,0 1,0 1,0 0,0 0,-1 0,-1 0,0 0,-1 0,-1 0,0 0,0 -1,0 0,0 0,0 0,0 0,0 -1,1 -1,1z"/>
  <path id="4" class="fil10" d="M130 38l-1 0 0 -4c-1,0 -1,1 -2,1l0 -1c1,0 1,0 1,-1 1,0 1,0 1,0l1 0 0 5z"/>
  <path id="5" class="fil10" d="M133 38l-1 0 0 -4c0,0 0,1 -1,1l0 -1c0,0 1,0 1,-1 0,0 1,0 1,0l0 0 0 5z"/>
  <path id="6" class="fil8" d="M104 34l-1 0 0 -2c0,0 0,1 0,1l0 -1c0,0 0,0 0,0 0,0 1,0 1,-1l0 0 0 3z"/>
  <path id="7" class="fil8" d="M105 33l0 0c0,1 0,1 0,1 0,0 1,0 1,0 0,0 0,0 0,0 0,0 0,-1 0,-1 0,0 0,0 0,0 0,0 0,0 0,0 0,0 -1,0 -1,0l0 0c1,0 1,0 1,-1 0,0 0,0 0,0 0,0 0,0 0,0 0,0 0,0 0,0 0,0 -1,0 -1,0 0,0 0,0 0,0l0 0c0,0 0,0 0,0 0,0 0,0 0,0 0,0 0,-1 1,-1 0,0 0,1 0,1 0,0 0,0 0,0 0,0 0,1 0,1 0,0 0,0 0,0 0,0 1,0 1,0 0,1 -1,1 -1,1 0,0 0,0 0,0 -1,0 -1,0 -1,0 0,0 0,0 0,-1z"/>
  <rect class="fil9" x="142" width="19.5" height="15.6"/>
  <path class="fil7" d="M144 5l0 0c0,0 0,0 0,0 1,0 1,1 1,1 0,0 0,0 1,0 0,0 0,0 0,0 0,0 0,0 1,-1 0,0 0,0 0,0 0,0 0,0 0,0 -1,0 -1,-1 -1,-1 0,0 0,0 -1,0 0,0 0,0 0,0 -1,0 -1,0 -1,0 0,-1 0,-1 0,-1 0,0 0,0 0,-1 0,0 0,0 1,0 0,0 0,0 0,0 1,0 1,0 1,0 1,0 1,0 1,0 0,1 0,1 0,1l0 0c-1,0 -1,0 -1,0 0,-1 0,-1 -1,-1 0,0 0,0 0,1 0,0 -1,0 -1,0 0,0 1,0 1,0 0,0 0,1 1,1 0,0 0,0 0,0 1,0 1,0 1,0 0,1 0,1 0,1 0,0 0,0 0,1 0,0 0,0 -1,0 0,0 0,0 0,0 -1,0 -1,0 -1,0 -1,0 -1,0 -1,0 0,-1 0,-1 0,-1z"/>
  <path id="1" class="fil7" d="M150 5l1 0c-1,1 -1,1 -1,1 0,0 0,0 -1,0 0,0 -1,0 -1,0 0,0 0,-1 0,-1 0,-1 0,-1 0,-2 0,0 1,0 1,0 1,0 1,0 1,0 0,1 1,1 1,2 0,0 0,0 0,0l-3 0c0,0 0,0 1,1 0,0 0,0 0,0 0,0 1,0 1,0 0,0 0,-1 0,-1zm-2 -1l2 0c0,0 0,0 0,0 0,0 -1,-1 -1,-1 0,0 0,1 0,1 -1,0 -1,0 -1,0z"/>
  <path id="2" class="fil7" d="M153 5l1 0c0,0 0,1 -1,1 0,0 0,0 -1,0 0,0 0,0 -1,0 0,0 0,-1 0,-1 0,-1 0,-1 0,-1 0,0 0,-1 1,-1 0,0 0,0 0,0 1,0 1,0 1,0 0,0 1,1 1,1l-1 0c0,0 0,0 0,0 0,0 0,-1 -1,-1 0,0 0,1 0,1 0,0 0,0 0,1 0,0 0,0 0,1 0,0 0,0 0,0 1,0 1,0 1,0 0,0 0,-1 0,-1z"/>
  <path id="3" class="fil7" d="M154 6l0 -3 1 0 0 1c0,-1 0,-1 0,-1 0,0 0,0 0,0 0,0 1,0 1,0l0 1c0,0 -1,0 -1,0 0,0 0,0 0,0 0,0 0,0 0,0 0,0 0,0 0,1l0 1 -1 0z"/>
  <path id="4" class="fil7" d="M158 5l1 0c0,1 0,1 -1,1 0,0 0,0 -1,0 0,0 0,0 -1,0 0,0 0,-1 0,-1 0,-1 0,-1 0,-2 1,0 1,0 1,0 1,0 1,0 1,0 1,1 1,1 1,2 0,0 0,0 0,0l-2 0c0,0 0,0 0,1 0,0 0,0 0,0 1,0 1,0 1,0 0,0 0,-1 0,-1zm-1 -1l1 0c0,0 0,0 0,0 0,0 0,-1 -1,-1 0,0 0,1 0,1 0,0 0,0 0,0z"/>
  <path id="5" class="fil7" d="M161 6l0 0c0,0 -1,0 -1,0 0,0 0,0 0,0 0,0 0,0 0,0 0,0 0,0 0,-1l0 -2 -1 0 0 0 1 0 0 -1 0 0 0 1 1 0 0 0 -1 0 0 2c0,0 0,1 0,1 0,0 0,0 0,0 0,0 0,0 0,0 0,0 1,0 1,0z"/>
  <path id="6" class="fil7" d="M151 13l-1 0 0 -3c0,0 0,0 -1,0l0 0c0,0 1,-1 1,-1 0,0 0,0 0,0l1 0 0 4z"/>
  <path id="7" class="fil7" d="M152 12l1 0c0,0 0,0 0,0 0,0 1,0 1,0 0,0 0,0 0,0 0,0 0,0 0,0 0,-1 0,-1 0,-1 0,0 0,0 0,0 0,0 0,0 -1,0l0 -1c1,0 1,0 1,0 0,0 0,0 0,0 0,0 0,-1 0,-1 0,0 0,0 0,0 0,0 -1,0 -1,0 0,0 0,1 0,1l-1 0c0,-1 1,-1 1,-1 0,0 0,0 0,0 0,0 0,0 1,0 0,0 0,0 1,0 0,0 0,0 0,1 0,0 0,0 -1,1 1,0 1,0 1,0 0,0 0,0 0,1 0,0 0,0 0,1 0,0 -1,0 -1,0 -1,0 -1,0 -1,0 0,-1 -1,-1 -1,-1z"/>
  <path class="fil5" d="M89 38l-9 0 0 2 -8 -4 8 -5 0 3 9 0 0 4zm-4 0m-5 1m-4 -1m0 -4m4 -2m5 2m4 2"/>
  <path class="fil10" d="M117 61l0 -3 -8 0 0 -4 8 -11 3 0 0 11 2 0 0 4 -2 0 0 3 -3 0zm0 -7l0 -6 -5 6 5 0z"/>
  <path class="fil11 str0" d="M142 19l-9 3 0 1 -10 0 8 -6 1 2 9 -3 1 3zm-5 1m-4 3m-5 0m-1 -3m5 -2m4 -1m5 0"/>
  <path class="fil10" d="M101 85l1 0c0,0 0,0 0,0 0,1 0,1 0,1 1,0 1,-1 1,-1 0,0 0,0 0,-1 0,1 0,1 -1,1 0,0 0,0 -1,-1 0,0 0,0 0,-1 0,0 0,-1 0,-1 1,0 1,0 1,0 1,0 1,0 2,0 0,0 0,1 0,2 0,1 0,1 0,2 -1,0 -1,0 -2,0 0,0 0,0 0,0 -1,0 -1,0 -1,-1zm2 -2c0,0 0,0 0,0 0,-1 0,-1 -1,-1 0,0 0,0 0,0 0,1 0,1 0,1 0,0 0,1 0,1 0,0 0,0 0,0 1,0 1,0 1,0 0,0 0,-1 0,-1z"/>
  <path id="1" class="fil10" d="M110 83l1 0 0 0c0,0 1,0 1,0 0,0 0,0 1,0 0,0 0,0 0,0 0,0 0,0 0,0 1,0 1,0 1,0 0,0 0,0 1,0 0,0 0,0 0,0 0,1 0,1 0,1l0 2 -1 0 0 -2c0,0 0,0 0,0 0,0 0,-1 0,-1 0,0 0,1 -1,1 0,0 0,0 0,0 0,0 0,0 0,1l0 1 -1 0 0 -2c0,0 0,0 0,0 0,0 0,0 0,0 0,-1 0,-1 0,-1 0,0 -1,1 -1,1 0,0 0,0 0,0 0,0 0,0 0,1l0 1 -1 0 0 -3z"/>
  <path id="2" class="fil10" d="M116 84c0,0 0,0 0,0 0,-1 0,-1 1,-1 0,0 0,0 1,0 0,0 0,0 1,0 0,1 0,1 0,2 0,0 0,0 0,1 -1,0 -1,0 -1,0 -1,0 -1,0 -1,0 -1,0 -1,0 -1,-1 0,0 0,0 0,-1zm1 1c0,0 0,0 0,0 0,0 0,1 1,1 0,0 0,-1 0,-1 0,0 0,0 0,0 0,-1 0,-1 0,-1 0,0 0,0 0,0 -1,0 -1,0 -1,0 0,0 0,0 0,1z"/>
  <path id="3" class="fil10" d="M123 86l-1 0 0 0c0,0 0,0 0,0 0,0 -1,0 -1,0 0,0 -1,0 -1,0 0,0 0,-1 0,-1 0,-1 0,-1 0,-2 0,0 1,0 1,0 1,0 1,0 1,0l0 -1 1 0 0 4zm-2 -2c0,1 0,1 0,1 0,0 0,1 0,1 1,0 1,0 1,-1 0,0 0,0 0,0 0,-1 0,-1 0,-1 0,0 0,-1 -1,-1 0,0 0,1 0,1 0,0 0,0 0,0z"/>
  <path id="4" class="fil10" d="M128 86l-1 0 0 -3c0,0 -1,0 -1,1l0 -1c0,0 0,0 0,-1 1,0 1,0 1,0l1 0 0 4z"/>
  <path id="5" class="fil10" d="M131 86l-1 0 0 -3c0,0 -1,0 -1,1l0 -1c0,0 0,0 1,-1 0,0 0,0 0,0l1 0 0 4z"/>
  <path id="6" class="fil8" d="M106 83l-1 0 0 -2c0,0 0,1 0,1l0 -1c0,0 0,0 0,0 0,0 0,0 0,0l1 0 0 2z"/>
  <path id="7" class="fil8" d="M106 82l1 0c0,0 0,1 0,1 0,0 0,0 0,0 0,0 0,0 0,0 0,-1 0,-1 0,-1 0,0 0,0 0,0 0,0 0,0 0,0 0,0 0,0 0,0l0 0c0,0 0,0 0,0 0,-1 0,-1 0,-1 0,0 0,0 0,0 0,0 0,0 0,0 0,0 0,0 0,0 0,0 0,0 0,0l-1 0c0,0 0,0 0,0 1,0 1,0 1,0 0,0 0,0 0,0 0,0 0,0 1,0 0,0 0,0 0,0 0,0 0,1 -1,1 1,0 1,0 1,0 0,0 0,0 0,0 0,0 0,1 0,1 -1,0 -1,0 -1,0 0,0 0,0 0,0 -1,0 -1,0 -1,-1z"/>
  <path class="fil11 str0" d="M126 69l7 0 0 1 7 -3 -7 -2 0 1 -7 0 0 3zm4 0m3 0m4 0m0 -3m-4 0m-3 0m-4 1"/>
 </g>
</svg>
