<?xml version="1.0" encoding="UTF-8"?>
<!DOCTYPE svg PUBLIC "-//W3C//DTD SVG 1.1//EN" "http://www.w3.org/Graphics/SVG/1.1/DTD/svg11.dtd">
<!-- Creator: CorelDRAW SE -->
<?xml-stylesheet href="Telephone-01.css" type="text/css"?>
<svg xmlns="http://www.w3.org/2000/svg" xml:space="preserve" width="161px" height="100px" version="1.1" style="shape-rendering:geometricPrecision; text-rendering:geometricPrecision; image-rendering:optimizeQuality; fill-rule:evenodd; clip-rule:evenodd"
viewBox="0 0 161 100"
 xmlns:xlink="http://www.w3.org/1999/xlink">
 <g id="Warstwa_x0020_1">
  <metadata id="CorelCorpID_0Corel-Layer"/>
  <path class="fil0" d="M53 42c0,-4 0,-7 0,-10 0,-8 18,-10 28,-10 10,0 27,2 27,10 0,3 0,6 0,10 31,20 31,40 31,49 0,1 -1,2 -3,2 -40,0 -72,0 -111,0 -3,0 -3,-2 -3,-2 0,-9 6,-35 31,-49z"/>
  <circle class="fil1" cx="81" cy="61" r="25"/>
  <path class="fil2" d="M92 74c2,-2 4,5 10,2l-5 4c-3,0 -7,-4 -5,-6z"/>
  <path class="fil0" d="M80 0c59,0 87,23 80,38l-43 -8 -2 -7c-26,-8 -43,-8 -69,0l-2 7 -43 8c-7,-15 21,-38 79,-38z"/>
  <path class="fil2" d="M3 39l42 -7 1 8c-1,3 -34,10 -37,8l-6 -9z"/>
  <circle class="fil0" cx="81" cy="61" r="17"/>
  <path class="fil2" d="M158 39l-42 -7 -1 8c1,3 34,10 37,8l6 -9z"/>
  <rect class="fil2" x="113" y="93" width="13.9826" height="6.99132"/>
  <rect class="fil2" x="34" y="93" width="13.9826" height="6.99132"/>
 </g>
</svg>
